<svg width="72" height="17" viewBox="0 0 72 17" fill="none" xmlns="http://www.w3.org/2000/svg">
<path d="M0 16.728V-3.8147e-06H8.16C9.296 -3.8147e-06 10.168 0.303996 10.776 0.911996C11.384 1.52 11.688 2.392 11.688 3.528V5.448C11.688 6.808 11.048 7.688 9.768 8.088C11.304 8.36 12.072 9.264 12.072 10.8V13.2C12.072 14.336 11.768 15.208 11.16 15.816C10.552 16.424 9.68 16.728 8.544 16.728H0ZM7.44 3.096H3.672V6.576H7.44C7.84 6.576 8.04 6.376 8.04 5.976V3.696C8.04 3.296 7.84 3.096 7.44 3.096ZM7.8 9.672H3.672V13.632H7.8C8.2 13.632 8.4 13.432 8.4 13.032V10.272C8.4 9.872 8.2 9.672 7.8 9.672Z" fill="#FBFBFB"/>
<path d="M14.6953 16.728V-3.8147e-06H25.3033V3.144H18.3673V6.576H24.6553V9.672H18.3673V13.584H25.4713V16.728H14.6953Z" fill="#FBFBFB"/>
<path d="M38.4489 3.192H34.5129V16.728H30.8409V3.192H26.8809V-3.8147e-06H38.4489V3.192Z" fill="#FBFBFB"/>
<path d="M50.7 10.416H44.172V16.728H40.5V-3.8147e-06H51.348V3.144H44.172V7.272H50.7V10.416Z" fill="#FBFBFB"/>
<path d="M53.5781 16.728V-3.8147e-06H57.2501V16.728H53.5781Z" fill="#FBFBFB"/>
<path d="M63.255 14.112V16.728H59.727V13.56C59.727 12.792 59.967 12.136 60.447 11.592L63.375 8.256L60.255 4.776C59.935 4.392 59.775 3.928 59.775 3.384V-3.8147e-06H63.447V2.544C63.447 3.008 63.575 3.376 63.831 3.648L65.967 6L67.911 3.72C68.103 3.496 68.199 3.112 68.199 2.568V-3.8147e-06H71.727V3.264C71.727 3.968 71.503 4.576 71.055 5.088L68.151 8.424L71.223 11.856C71.591 12.272 71.775 12.84 71.775 13.56V16.728H68.103V14.136C68.103 13.72 67.975 13.376 67.719 13.104L65.559 10.68L63.567 12.984C63.359 13.224 63.255 13.6 63.255 14.112Z" fill="#FBFBFB"/>
</svg>
